<svg xmlns="http://www.w3.org/2000/svg" viewBox="0 0 64 64"><g id="_19-Price_tag" data-name="19-Price tag"><polygon points="50 39 50 1 32 1 14 1 14 39 6 39 32 63 58 39 50 39" style="fill:#e04323"/><polygon points="32 59 10.333 39 6 39 32 63 58 39 53.667 39 32 59" style="fill:#cd2b15"/><polygon points="50 4 50 1 32 1 14 1 14 4 32 4 50 4" style="fill:#d6e0eb"/><path d="M24,37H22a2,2,0,0,0-2,2v4a2,2,0,0,0,2,2h2a2,2,0,0,0,2-2V39A2,2,0,0,0,24,37Zm0,6H22V39h2Z" style="fill:#fff"/><path d="M32,37H30a2,2,0,0,0-2,2v4a2,2,0,0,0,2,2h2a2,2,0,0,0,2-2V39A2,2,0,0,0,32,37Zm0,6H30V39h2Z" style="fill:#fff"/><path d="M41,39V37H37a1,1,0,0,0-1,1v7h2V42h2V40H38V39Z" style="fill:#fff"/><path d="M32,23H28a2,2,0,0,0-2,2v6a2,2,0,0,0,2,2h4a2,2,0,0,0,2-2V25A2,2,0,0,0,32,23Zm0,8H28V25h4Z" style="fill:#fff"/><rect x="34.169" y="27" width="11.662" height="2" rx="1" transform="translate(-4.593 47.886) rotate(-59.027)" style="fill:#fff"/><path d="M22.5,16V15A1.5,1.5,0,0,0,21,13.5H20a.5.5,0,0,1-.5-.5V12a.5.5,0,0,1,.5-.5h2v-1H20A1.5,1.5,0,0,0,18.5,12v1A1.5,1.5,0,0,0,20,14.5h1a.5.5,0,0,1,.5.5v1a.5.5,0,0,1-.5.5H19v1h2A1.5,1.5,0,0,0,22.5,16Z" style="fill:#fff"/><path d="M29,10.5H27A1.5,1.5,0,0,0,25.5,12v5.5h1v-2h3v2h1V12A1.5,1.5,0,0,0,29,10.5Zm.5,4h-3V12a.5.5,0,0,1,.5-.5h2a.5.5,0,0,1,.5.5Z" style="fill:#fff"/><path d="M34.5,16.5v-6h-1V17a.5.5,0,0,0,.5.5h4v-1Z" style="fill:#fff"/><path d="M40.5,16.5v-2H43v-1H40.5v-2H44v-1H40a.5.5,0,0,0-.5.5v6a.5.5,0,0,0,.5.5h4v-1Z" style="fill:#fff"/><circle cx="43" cy="31" r="1" style="fill:#fff"/><circle cx="37" cy="25" r="1" style="fill:#fff"/><path d="M24.914,24.406A1,1,0,0,0,24,23H18v2h4.461l-3.648,8h2.281Z" style="fill:#fff"/></g></svg>