<svg xmlns="http://www.w3.org/2000/svg" viewBox="0 0 64 64"><g id="_10-Commerce_and_shopping" data-name="10-Commerce and shopping"><rect x="1" y="6" width="62" height="8" style="fill:#313131"/><rect x="1" y="14" width="62" height="44" style="fill:#e04323"/><rect x="8" y="23" width="48" height="20" style="fill:#262626"/><rect x="1" y="6" width="62" height="2" style="fill:#262626"/><path d="M1,14V58H63V53H19A12,12,0,0,1,7,41V14Z" style="fill:#cd2b15"/><path d="M23.5,28H19a1,1,0,0,0-1,1v6a1,1,0,0,0,1,1h4.5A2.5,2.5,0,0,0,26,33.5a2.471,2.471,0,0,0-.513-1.5A2.471,2.471,0,0,0,26,30.5,2.5,2.5,0,0,0,23.5,28ZM20,30h3.5a.5.5,0,0,1,0,1H20Zm3.5,4H20V33h3.5a.5.5,0,0,1,0,1Z" style="fill:#fff"/><path d="M34,32a2,2,0,0,1-4,0V28H28v4a4,4,0,0,0,8,0V28H34Z" style="fill:#fff"/><path d="M44,28v1a2,2,0,0,1-4,0V28H38v1a4,4,0,0,0,3,3.858V36h2V32.858A4,4,0,0,0,46,29V28Z" style="fill:#fff"/><rect x="31.5" y="19" width="1" height="6" style="fill:#fff"/><rect x="35.477" y="21.875" width="6.047" height="1.001" transform="translate(-0.028 44.701) rotate(-60.255)" style="fill:#fff"/><rect x="25" y="19.352" width="1.001" height="6.047" transform="translate(-7.741 15.6) rotate(-29.745)" style="fill:#fff"/><rect x="4" y="9" width="2" height="2" style="fill:#fff"/><rect x="8" y="9" width="2" height="2" style="fill:#fff"/><rect x="12" y="9" width="2" height="2" style="fill:#fff"/><rect x="58" y="9" width="2" height="2" style="fill:#a8b7d4"/><polygon points="58 43 42 38 47 54 50.095 48.762 55.333 54 58 51.333 52.762 46.095 58 43" style="fill:#fff"/><polygon points="42 38 47 54 50.095 48.762 55.333 54 56.667 52.667 42 38" style="fill:#edf4fa"/><polygon points="48.61 51.276 53.333 56 55.333 54 50.095 48.762 48.61 51.276" style="fill:#cd2b15"/><polygon points="53.276 46.609 56 45 55.094 44.717 52.762 46.095 53.276 46.609" style="fill:#cd2b15"/><polygon points="42.909 40.909 40 40 40.937 43 43.562 43 42.909 40.909" style="fill:#101012"/><polygon points="40.937 43 45 56 46.717 53.094 43.562 43 40.937 43" style="fill:#cd2b15"/></g></svg>