<?xml version="1.0" encoding="iso-8859-1"?>
<!-- Generator: Adobe Illustrator 19.0.0, SVG Export Plug-In . SVG Version: 6.00 Build 0)  -->
<svg xmlns="http://www.w3.org/2000/svg" xmlns:xlink="http://www.w3.org/1999/xlink" version="1.1" id="Layer_1" x="0px" y="0px" viewBox="0 0 512.003 512.003" style="enable-background:new 0 0 512.003 512.003;" xml:space="preserve">
<path style="fill:#C7C5CB;" d="M374.197,349.546l-24.608,24.608c-5.117,5.117-5.117,13.412,0,18.528L456.206,499.3  c5.117,5.117,13.412,5.117,18.528,0l24.608-24.608c5.117-5.117,5.117-13.412,0-18.528L392.725,349.546  C387.609,344.429,379.313,344.429,374.197,349.546z"/>
<path style="fill:#8B8992;" d="M499.344,456.163L392.725,349.546c-5.117-5.117-13.412-5.117-18.528,0l-24.608,24.608v0.001  l3.099-3.097c5.117-5.117,13.412-5.117,18.528,0l106.618,106.617c5.117,5.117,5.117,13.412,0,18.528l21.511-21.509  C504.46,469.576,504.46,461.28,499.344,456.163z"/>
<circle style="fill:#84C9FE;" cx="204.606" cy="204.57" r="195.797"/>
<path style="fill:#70B9E5;" d="M343.061,66.115C300.452,23.507,243.092,4.654,187.42,9.531  c44.236,3.876,87.406,22.729,121.261,56.585c76.464,76.464,76.464,200.439,0,276.903c-33.856,33.856-77.025,52.709-121.261,56.585  c55.672,4.878,113.033-13.975,155.642-56.585C419.526,266.554,419.526,142.581,343.061,66.115z"/>
<circle style="fill:#F2F2F2;" cx="204.606" cy="204.57" r="161.424"/>
<path style="fill:#E6E6E6;" d="M318.751,90.426c-35.412-35.412-83.184-50.93-129.428-46.555  c36.078,3.411,71.227,18.929,98.854,46.555c63.038,63.038,63.038,165.244,0,228.282c-27.627,27.627-62.775,43.144-98.854,46.555  c46.245,4.373,94.017-11.143,129.428-46.555C381.79,255.67,381.79,153.464,318.751,90.426z"/>
<path style="fill:#FFFFFF;" d="M136.14,155.575c-23.513,21.865-25.563,55.691-40.431,39.703  c-14.866-15.988-7.857-46.674,15.657-68.537s54.627-26.627,69.493-10.64S159.655,133.712,136.14,155.575z"/>
<g>
	<path style="fill:#232323;" d="M505.58,449.927l-60.905-60.905c-3.446-3.444-9.029-3.444-12.473,0s-3.444,9.029,0,12.472   l60.906,60.905c1.091,1.091,1.254,2.365,1.254,3.027c0,0.662-0.163,1.936-1.255,3.028l-24.608,24.608   c-1.091,1.091-2.365,1.254-3.027,1.254s-1.936-0.162-3.027-1.254L355.826,386.444c-1.67-1.669-1.67-4.386,0-6.055l24.609-24.608   c1.091-1.091,2.365-1.254,3.027-1.254c0.662,0,1.936,0.163,3.027,1.254l18.732,18.732c3.446,3.444,9.029,3.444,12.473,0   s3.444-9.029,0-12.472l-18.733-18.732c-4.141-4.141-9.645-6.42-15.5-6.42s-11.361,2.28-15.502,6.421l-6.068,6.068l-6.501-6.501   c73.619-80.177,71.596-205.306-6.094-282.997c-79.782-79.782-209.596-79.782-289.378,0C26.792,93.009,5.896,136.871,1.082,183.389   c-4.744,45.847,6.209,92.381,30.844,131.029c2.619,4.108,8.071,5.314,12.177,2.696c4.108-2.619,5.315-8.071,2.696-12.178   C0.112,231.687,10.877,133.87,72.395,72.352c72.902-72.904,191.527-72.904,264.43,0s72.902,191.527,0,264.431   c-72.904,72.902-191.529,72.904-264.43,0c-1.208-1.208-2.395-2.427-3.563-3.66c-3.353-3.535-8.935-3.683-12.47-0.33   c-3.534,3.351-3.682,8.934-0.33,12.469c1.276,1.345,2.572,2.676,3.89,3.995c39.891,39.891,92.289,59.835,144.689,59.835   c49.654,0,99.299-17.922,138.309-53.741l6.501,6.501l-6.068,6.068c-8.547,8.547-8.547,22.454,0,31.001l106.618,106.618   c4.141,4.141,9.645,6.421,15.502,6.421s11.361-2.28,15.501-6.421l24.607-24.608c4.141-4.141,6.422-9.645,6.422-15.502   S509.72,454.067,505.58,449.927z"/>
	<path style="fill:#232323;" d="M204.61,374.807c45.472,0,88.223-17.709,120.377-49.862s49.862-74.904,49.862-120.377   c0-45.472-17.709-88.223-49.862-120.377S250.082,34.329,204.61,34.329c-45.473,0-88.223,17.709-120.378,49.862   c-66.375,66.377-66.375,174.38,0,240.754C116.386,357.098,159.137,374.807,204.61,374.807z M96.705,96.662   c28.823-28.823,67.144-44.696,107.905-44.696s79.082,15.873,107.904,44.696c28.824,28.823,44.697,67.144,44.697,107.905   s-15.873,79.082-44.697,107.905c-28.822,28.823-67.143,44.696-107.904,44.696s-79.082-15.873-107.905-44.696   C37.207,252.973,37.207,156.162,96.705,96.662z"/>
</g>
<g>
</g>
<g>
</g>
<g>
</g>
<g>
</g>
<g>
</g>
<g>
</g>
<g>
</g>
<g>
</g>
<g>
</g>
<g>
</g>
<g>
</g>
<g>
</g>
<g>
</g>
<g>
</g>
<g>
</g>
</svg>
