<svg xmlns="http://www.w3.org/2000/svg" viewBox="0 0 48 48"><defs><style>.cls-1{fill:#dad7e5;}.cls-2{fill:#edebf2;}.cls-3{fill:#f16f39;}.cls-4{fill:#f8834b;}.cls-5{fill:#9dcc6b;}.cls-6{fill:#7c7d7d;}.cls-7{fill:#919191;}.cls-8{fill:#9fdbf3;}.cls-9{fill:#b5e08c;}.cls-10{fill:#be927c;}.cls-11{fill:#b2e5fb;}</style></defs><title>39. Green House</title><g id="_39._Green_House" data-name="39. Green House"><rect class="cls-1" x="10" y="27" width="28" height="20"/><path class="cls-2" d="M38,27V45H31A18,18,0,0,1,13,27Z"/><path class="cls-3" d="M41,27H7L24,13Z"/><path class="cls-4" d="M38.57,25H20.36a3,3,0,0,1-1.9-5.32l6.83-5.62Z"/><path class="cls-5" d="M26.76,1.46c-1,4.67,2.4,8.06,7.07,7.08C34.82,3.87,31.43.48,26.76,1.46Z"/><path class="cls-5" d="M41.24,3.46c1,4.67-2.4,8.06-7.07,7.08C33.18,5.87,36.57,2.48,41.24,3.46Z"/><rect class="cls-6" x="14" y="37" width="6" height="10"/><path class="cls-7" d="M20,37c0,8.55-.1,8,0,8a3,3,0,0,1-3-3V37Z"/><rect class="cls-8" x="24" y="33" width="10" height="8"/><path class="cls-9" d="M34,6.67A5.47,5.47,0,0,1,27.6,1.33,5.47,5.47,0,0,1,34,6.67Z"/><path class="cls-9" d="M40.4,3.33A5.47,5.47,0,0,1,34,8.67,5.47,5.47,0,0,1,40.4,3.33Z"/><path class="cls-10" d="M33,15V7a1,1,0,0,1,2,0v8A1,1,0,0,1,33,15Z"/><polygon class="cls-6" points="36 15 36 22.88 32 19.59 32 15 36 15"/><path class="cls-7" d="M36,15c0,6.08-.1,5.16,0,5.24-2-1.62-2-3.54-2-5.24Z"/><path class="cls-11" d="M28,33v3H27a3,3,0,0,1-3-3Z"/><path class="cls-11" d="M28,37v3H27a3,3,0,0,1-3-3Z"/><path class="cls-11" d="M34,37v3H33a3,3,0,0,1-3-3Z"/><path class="cls-11" d="M34,33v3H33a3,3,0,0,1-3-3Z"/><path class="cls-7" d="M40,48C5.89,48,7,48.43,7,47s-1.18-1,33-1A1,1,0,0,1,40,48Z"/></g></svg>