<svg id="icon" xmlns="http://www.w3.org/2000/svg" viewBox="0 0 512 512"><path d="M254.026,308.591a48.006,48.006,0,0,1,47.069,48V468.755h58.06a45.864,45.864,0,0,0,45.863-45.863V236.761L253.09,86.052V308.6C253.4,308.6,253.712,308.585,254.026,308.591Z" style="fill:#f2f2f2"/><polygon points="405.018 303.219 405.018 236.761 253.09 86.052 253.09 151.292 405.018 303.219" style="fill:#ccc"/><polygon points="453.147 308.544 485.767 275.924 253.09 43.246 253.09 108.486 453.147 308.544" style="fill:#ff7b69"/><path d="M20.412,275.924l32.62,32.62,48.13-48.131V422.892a45.863,45.863,0,0,0,45.862,45.863h58.06V357.535c0-26.6,21.522-48.917,48.006-48.937V43.246Z" style="fill:#fff"/><path d="M248.826,302.929a53.714,53.714,0,0,0-10.121,1.777,5.821,5.821,0,0,0,1.549,11.431c3.153-.409,6.246-1.5,9.481-1.6C257.367,313.747,256.5,302.512,248.826,302.929Z" style="fill:#333"/><path d="M199.264,388.725v21.826c.193,7.67,11.446,7.68,11.641,0V388.725C210.712,381.055,199.459,381.045,199.264,388.725Z" style="fill:#333"/><path d="M216.957,334.8c3.8-6.662-5.822-12.494-9.963-6.022a53.176,53.176,0,0,0-7.524,23.071,5.82,5.82,0,1,0,11.6,1.011A41.623,41.623,0,0,1,216.957,334.8Z" style="fill:#333"/><path d="M101.162,386.29a5.82,5.82,0,0,0,5.82-5.82V358.644c-.192-7.67-11.445-7.68-11.64,0V380.47A5.82,5.82,0,0,0,101.162,386.29Z" style="fill:#333"/><path d="M179.5,468.754a5.821,5.821,0,0,0,5.821,5.82h19.767a5.82,5.82,0,0,0,5.82-5.82V446.928c-.194-7.67-11.445-7.681-11.641,0v16.006H185.318A5.821,5.821,0,0,0,179.5,468.754Z" style="fill:#333"/><path d="M101.162,294.621a5.82,5.82,0,0,0-5.82,5.82v21.826c.192,7.67,11.445,7.68,11.64,0V300.441A5.82,5.82,0,0,0,101.162,294.621Z" style="fill:#333"/><path d="M147.024,462.934a39.705,39.705,0,0,1-16.835-3.7,5.82,5.82,0,1,0-4.9,10.558,51.246,51.246,0,0,0,21.736,4.781h1.917a5.82,5.82,0,1,0,0-11.64Z" style="fill:#333"/><path d="M106.982,416.846c-.192-7.669-11.445-7.68-11.64,0-.2,7.852.2,16.123,3.017,23.483,2.8,7.18,13.364,3.338,10.958-3.928C106.959,430.367,106.848,423.29,106.982,416.846Z" style="fill:#333"/><path d="M207.819,80.286,192.386,95.719c-5.289,5.561,2.665,13.523,8.231,8.23L216.05,88.516C221.338,82.959,213.387,74.992,207.819,80.286Z" style="fill:#333"/><path d="M218.838,142.739a5.819,5.819,0,0,0-8.232,0l-15.433,15.433c-5.288,5.561,2.665,13.523,8.232,8.23l15.433-15.433A5.819,5.819,0,0,0,218.838,142.739Z" style="fill:#333"/><path d="M125.508,162.6l-15.434,15.434a5.82,5.82,0,0,0,8.232,8.23l15.434-15.434C139.027,165.27,131.077,157.3,125.508,162.6Z" style="fill:#333"/><path d="M87.14,266.205,71.707,281.638a5.82,5.82,0,0,0,8.232,8.23l15.433-15.433C100.658,268.877,92.711,260.911,87.14,266.205Z" style="fill:#333"/><path d="M128.3,225.049l-15.434,15.433a5.82,5.82,0,1,0,8.23,8.231l15.434-15.433C141.815,227.722,133.866,219.757,128.3,225.049Z" style="fill:#333"/><path d="M43.2,244.909,27.764,260.342c-5.288,5.56,2.665,13.523,8.231,8.23l15.433-15.433C56.716,247.582,48.768,239.615,43.2,244.909Z" style="fill:#333"/><path d="M84.354,203.753,68.92,219.186a5.82,5.82,0,1,0,8.23,8.231l15.434-15.433C97.872,206.427,89.923,198.46,84.354,203.753Z" style="fill:#333"/><path d="M30.552,286.064a5.819,5.819,0,0,0,0,8.23l15.433,15.433c5.559,5.289,13.524-2.663,8.231-8.23L38.783,286.064A5.82,5.82,0,0,0,30.552,286.064Z" style="fill:#333"/><path d="M166.663,121.442,151.23,136.875c-5.288,5.56,2.665,13.523,8.232,8.23L174.9,129.672C180.183,124.114,172.231,116.147,166.663,121.442Z" style="fill:#333"/><path d="M169.452,183.894l-15.434,15.433a5.82,5.82,0,1,0,8.231,8.23l15.434-15.433C182.97,186.566,175.021,178.6,169.452,183.894Z" style="fill:#333"/><path d="M257.205,39.131a5.819,5.819,0,0,0-8.231,0L233.541,54.564c-3.709,3.457-.865,10.113,4.116,9.935a5.8,5.8,0,0,0,4.115-1.7L253.09,51.477,477.537,275.924l-24.39,24.388L257.205,104.372a5.817,5.817,0,0,0-8.231,0l-12.645,12.645a5.82,5.82,0,1,0,8.231,8.23l8.53-8.529L449.031,312.659a5.821,5.821,0,0,0,8.232,0l32.62-32.62a5.854,5.854,0,0,0,0-8.23Z" style="fill:#333"/><path d="M276.255,462.934c-7.613.151-7.722,11.45,0,11.64h82.9a51.74,51.74,0,0,0,51.681-51.682V300.441c-.19-7.609-11.42-7.738-11.64,0V422.892a40.087,40.087,0,0,1-40.041,40.042h-52.24V356.586a54.012,54.012,0,0,0-22.3-43.628,5.82,5.82,0,1,0-6.825,9.43,42.338,42.338,0,0,1,17.481,34.2V462.934Z" style="fill:#333"/><path d="M229.809,468.754a5.82,5.82,0,0,0,5.82,5.82h11.64c7.673-.194,7.678-11.446,0-11.64h-11.64A5.82,5.82,0,0,0,229.809,468.754Z" style="fill:#333"/></svg>