<?xml version="1.0" encoding="utf-8"?>
<!-- Generator: Adobe Illustrator 21.1.0, SVG Export Plug-In . SVG Version: 6.00 Build 0)  -->
<svg version="1.1" id="Layer_1" xmlns="http://www.w3.org/2000/svg" xmlns:xlink="http://www.w3.org/1999/xlink" x="0px" y="0px"
	 viewBox="0 0 64 64" style="enable-background:new 0 0 64 64;" xml:space="preserve">
<style type="text/css">
	.st0{fill:#ACBDC5;}
	.st1{fill-rule:evenodd;clip-rule:evenodd;fill:#314A52;}
</style>
<g id="Hanger">
	<path class="st0" d="M31.3,28.1l-27,10.8C1.7,40,0,42.5,0,45.2C0,49,3,52,6.8,52H56v-3h5v-6l-5-2h-1.9c1.2,0.5,1.9,1.1,1.9,1.7
		c0,2.9-16,5.3-35.8,5.3H20c-8.7,0-15.7-1.3-16-2.9c0.1-1.1,0.7-2,1.7-2.4l27-10.8L31.3,28.1z"/>
	<path class="st1" d="M32,16c-2.2,0-4,1.8-4,4h-4c0-4.4,3.6-8,8-8c4.4,0,8,3.6,8,8c0,3.7-2.5,6.9-6,7.7v0.9l25.7,10.3
		c2.6,1,4.3,3.5,4.3,6.3c0,3.7-3,6.8-6.8,6.8H52v-4h5.2c1.5,0,2.8-1.2,2.8-2.8c0-1.1-0.7-2.2-1.7-2.6L30,31.4V26c0-1.1,0.9-2,2-2
		c2.2,0,4-1.8,4-4C36,17.8,34.2,16,32,16z"/>
</g>
</svg>
