<svg xmlns="http://www.w3.org/2000/svg" viewBox="0 0 64 64"><g id="_16-Online_shopping" data-name="16-Online shopping"><path d="M48,1H38V2a2.006,2.006,0,0,1-2,2H28a2.006,2.006,0,0,1-2-2V1H16a1,1,0,0,0-1,1V56a1,1,0,0,0,1,1H48a1,1,0,0,0,1-1V2A1,1,0,0,0,48,1Z" style="fill:#e04323"/><path d="M20,35V1H16a1,1,0,0,0-1,1V56a1,1,0,0,0,1,1H48a1,1,0,0,0,1-1V51H36A16,16,0,0,1,20,35Z" style="fill:#cd2b15"/><path d="M28,4h8a2.006,2.006,0,0,0,2-2V1H26V2A2.006,2.006,0,0,0,28,4Z" style="fill:#262626"/><path d="M48,1H38V2H48V56H16V2H26V1H16a1,1,0,0,0-1,1V56a1,1,0,0,0,1,1H48a1,1,0,0,0,1-1V2A1,1,0,0,0,48,1Z" style="fill:#262626"/><rect x="19" y="14" width="26" height="14" style="fill:#262626"/><path d="M26.5,22.5a1.988,1.988,0,0,0-.691-1.5A1.992,1.992,0,0,0,24.5,17.5H22a.5.5,0,0,0-.5.5v6a.5.5,0,0,0,.5.5h2.5A2,2,0,0,0,26.5,22.5Zm-2,1h-2v-2h2a1,1,0,0,1,0,2Zm0-3h-2v-2h2a1,1,0,0,1,0,2Z" style="fill:#fff"/><path d="M34.5,22V17.5h-1V22a1.5,1.5,0,0,1-3,0V17.5h-1V22a2.5,2.5,0,0,0,5,0Z" style="fill:#fff"/><path d="M42.5,19V17.5h-1V19a1.5,1.5,0,0,1-3,0V17.5h-1V19a2.5,2.5,0,0,0,2,2.449V24.5h1V21.449A2.5,2.5,0,0,0,42.5,19Z" style="fill:#fff"/><rect x="44" y="48" width="2" height="2" style="fill:#fff"/><rect x="44" y="52" width="2" height="2" style="fill:#fff"/><polygon points="39 4 46 11 46 4 39 4" style="fill:#cd2b15"/><path d="M40.88,43a2.119,2.119,0,0,0-1.5.62L35,48V29.5a2.5,2.5,0,1,0-5,0v8a2.5,2.5,0,0,0-5,0v1a2.5,2.5,0,0,0-5,0v2a2.5,2.5,0,1,0-5,0V52.8a6.18,6.18,0,0,0,.45,2.32l1.1,2.76A6.18,6.18,0,0,1,17,60.2V63H33V59l9.56-12.43A2.076,2.076,0,0,0,43,45.28v-.16A2.121,2.121,0,0,0,40.88,43Z" style="fill:#f2aec7"/><path d="M26,44a1,1,0,0,0,1-1V37a2,2,0,0,1,1.285-1.863A2.473,2.473,0,0,0,25,37.5V44Z" style="fill:#e39ab0"/><path d="M31,44a1,1,0,0,0,1-1V29a2,2,0,0,1,1.284-1.862A2.455,2.455,0,0,0,32.5,27,2.492,2.492,0,0,0,30,29.5V44Z" style="fill:#e39ab0"/><path d="M21,44a1,1,0,0,0,1-1V38a2,2,0,0,1,1.285-1.863A2.473,2.473,0,0,0,20,38.5V44Z" style="fill:#e39ab0"/><path d="M40.88,43a2.119,2.119,0,0,0-1.5.62L35,48v.339A1,1,0,0,0,36.753,49l3.839-4.388a1.993,1.993,0,0,1,2.094-.586A2.114,2.114,0,0,0,40.88,43Z" style="fill:#e39ab0"/><path d="M19,59l-1.692-5.076a6,6,0,0,1-.308-1.9V40a2,2,0,0,1,1.284-1.862A2.455,2.455,0,0,0,17.5,38,2.492,2.492,0,0,0,15,40.5V52.8a6.18,6.18,0,0,0,.45,2.32l1.1,2.76A6.18,6.18,0,0,1,17,60.2V63H33V61H21A2,2,0,0,1,19,59Z" style="fill:#e39ab0"/></g></svg>